# xmcd
#
# Track frame offsets:
#	150
#	3141
#	5461
#	8314
#	10876
#	13454
#	16568
#	18894
#	28269
#	37977
#	46854
#	56123
#	65376
#	74159
#
# Disc length: 1109 seconds
#
# Revision: 1
# Processed by: cddbd v1.5.2PL0 Copyright (c) Steve Scherf et al.
# Submitted via: EZCDAudioConverter 2.0.5.1
#
DISCID=9c04530e
DTITLE=bertold - vinokur
DYEAR=2009
DGENRE=Blues
TTITLE0=vinokur
TTITLE1=vinokur
TTITLE2=vinokur
TTITLE3=vinokur
TTITLE4=vinokur
TTITLE5=vinokur
TTITLE6=vinokur
TTITLE7=vinokur
TTITLE8=vinokur
TTITLE9=vinokur
TTITLE10=vinokur
TTITLE11=vinokur
TTITLE12=vinokur
TTITLE13=vinokur
EXTD=
EXTT0=
EXTT1=
EXTT2=
EXTT3=
EXTT4=
EXTT5=
EXTT6=
EXTT7=
EXTT8=
EXTT9=
EXTT10=
EXTT11=
EXTT12=
EXTT13=
PLAYORDER=
